<?xml version="1.0" standalone="no"?>
<!DOCTYPE svg PUBLIC "-//W3C//DTD SVG 20010904//EN"
 "http://www.w3.org/TR/2001/REC-SVG-20010904/DTD/svg10.dtd">
<svg version="1.0" xmlns="http://www.w3.org/2000/svg"
 width="875.000000pt" height="949.000000pt" viewBox="0 0 875.000000 949.000000"
 preserveAspectRatio="xMidYMid meet">
<metadata>
Created by potrace 1.16, written by Peter Selinger 2001-2019
</metadata>
<g transform="translate(0.000000,949.000000) scale(0.100000,-0.100000)"
fill="#000000" stroke="none">
<path d="M3620 9409 c-390 -30 -870 -155 -1262 -330 -1070 -476 -1921 -1346
-2191 -2239 -158 -524 -177 -1105 -57 -1758 111 -602 351 -1216 673 -1727 152
-240 254 -419 353 -618 56 -115 108 -215 115 -223 6 -8 27 -14 46 -14 l34 0
-2 -357 -2 -357 27 -22 c27 -24 34 -44 14 -44 -6 0 -19 7 -28 15 -16 14 -17
-1 -24 -212 -7 -267 -19 -479 -42 -762 -16 -195 -16 -205 1 -217 29 -22 52 -1
59 53 22 176 50 622 62 996 6 191 5 217 -8 217 -20 0 -48 43 -48 73 0 25 28
57 48 57 9 0 12 72 12 275 l0 275 38 0 c20 0 54 -3 75 -6 38 -7 38 -7 32 -48
-6 -45 -52 -484 -59 -556 -2 -25 -23 -214 -45 -420 -23 -206 -48 -442 -56
-525 -8 -82 -30 -287 -49 -455 -35 -313 -35 -330 4 -330 30 0 37 21 49 130 47
425 153 1413 198 1835 20 193 37 351 38 353 1 1 35 -3 75 -9 l72 -12 -6 -46
c-8 -61 -32 -206 -51 -311 -9 -47 -56 -319 -105 -605 -50 -286 -113 -651 -141
-812 -28 -160 -49 -304 -47 -320 2 -22 9 -29 30 -31 33 -4 35 0 83 278 19 113
46 270 60 350 34 190 126 725 176 1015 52 305 80 459 84 463 6 6 135 -20 140
-29 3 -4 -28 -147 -70 -316 -41 -169 -115 -472 -165 -673 -84 -342 -121 -495
-206 -850 -19 -80 -52 -215 -74 -301 -22 -85 -40 -167 -40 -181 0 -34 23 -53
48 -39 15 8 32 63 81 263 62 255 68 284 52 259 -5 -8 -11 -9 -15 -3 -3 6 2 13
13 17 15 5 31 57 91 303 40 163 130 531 200 817 70 286 137 556 147 600 l20
80 43 -2 c24 -1 47 -6 52 -11 5 -5 -12 -86 -41 -193 -119 -443 -154 -572 -221
-810 -114 -406 -206 -718 -282 -956 -61 -189 -69 -224 -58 -238 27 -33 53 -14
78 55 22 62 131 407 186 590 83 280 324 1147 392 1418 18 71 34 112 42 112 37
0 599 -151 1187 -319 451 -128 619 -173 785 -210 l136 -31 269 -148 c706 -389
1406 -745 1740 -885 119 -50 336 -71 745 -71 261 -1 316 2 383 17 271 64 417
254 417 545 l0 95 -25 -23 c-37 -34 -113 -38 -190 -10 -66 25 -566 276 -820
412 -88 47 -266 142 -395 211 -257 136 -424 226 -1147 614 l-482 260 128 239
c760 1425 1461 2468 2085 3102 303 308 534 487 793 613 129 64 138 70 148 110
8 34 -44 166 -145 369 -312 626 -763 1111 -1380 1482 -609 367 -1273 592
-1980 672 -298 34 -656 44 -900 25z m384 -140 c77 -19 154 -105 156 -174 1
-12 24 -38 60 -66 l59 -46 -96 -116 -96 -116 -60 50 c-49 41 -65 49 -99 49
-54 0 -101 24 -143 74 -19 22 -42 49 -50 59 -8 9 -12 17 -7 17 4 0 7 28 7 63
1 96 53 171 143 203 46 16 71 17 126 3z m1149 -150 c79 -22 147 -111 147 -192
0 -32 6 -49 21 -63 12 -10 34 -35 50 -55 l29 -37 -119 -95 -119 -96 -45 57
c-37 47 -53 59 -91 70 -119 31 -189 180 -137 288 52 107 153 154 264 123z
m-2166 -20 c24 -12 56 -36 71 -55 22 -28 36 -35 94 -45 37 -7 68 -15 68 -19 0
-7 -41 -178 -61 -251 l-9 -36 -66 15 c-59 13 -71 13 -116 -2 -28 -9 -62 -16
-77 -16 -83 0 -176 66 -207 146 -39 102 21 231 126 273 44 17 130 13 177 -10z
m-912 -300 c24 -7 57 -29 84 -55 24 -24 50 -44 58 -44 8 0 39 -7 69 -16 47
-13 53 -18 49 -37 -44 -184 -63 -259 -67 -263 -3 -3 -36 3 -73 12 -62 16 -69
16 -101 0 -84 -39 -210 -7 -257 67 -79 121 -47 260 74 321 57 28 101 32 164
15z m4065 -160 c104 -23 173 -114 169 -221 -2 -47 2 -61 35 -112 20 -32 36
-60 34 -61 -2 -2 -59 -37 -127 -78 l-125 -76 -37 60 c-28 47 -47 65 -87 85
-81 40 -122 110 -122 206 0 91 63 168 157 194 59 16 50 15 103 3z m-1981 -78
c73 -38 121 -115 121 -195 0 -18 14 -46 37 -75 20 -25 40 -51 45 -57 4 -6 -36
-45 -106 -102 -63 -51 -116 -92 -119 -92 -2 0 -23 24 -45 53 -33 44 -49 56
-88 67 -68 19 -128 81 -149 154 -15 51 -15 61 -1 109 17 59 69 120 120 143 47
20 140 18 185 -5z m-1153 -126 c49 -29 93 -89 101 -141 4 -25 19 -43 59 -76
30 -23 54 -45 54 -48 0 -10 -182 -220 -190 -220 -5 0 -31 20 -60 44 -43 37
-59 44 -105 48 -106 9 -189 100 -186 205 2 99 48 165 141 208 49 22 129 13
186 -20z m2181 -239 c75 -38 116 -106 119 -197 2 -57 7 -73 39 -124 21 -32 34
-60 28 -62 -5 -2 -63 -37 -129 -77 l-120 -74 -38 62 c-30 49 -47 66 -89 86
-33 16 -62 40 -82 68 -27 39 -30 52 -30 115 0 85 4 106 28 131 9 11 17 23 17
26 0 8 74 50 108 61 36 11 114 4 149 -15z m-3827 -144 c31 -15 42 -16 104 -5
38 7 71 12 73 10 9 -10 53 -281 46 -287 -4 -4 -37 -13 -72 -19 -47 -9 -70 -19
-84 -37 -31 -40 -95 -67 -166 -70 -58 -3 -68 0 -107 28 -146 104 -135 302 21
382 41 22 141 21 185 -2z m713 -88 c16 -9 46 -33 66 -53 29 -30 50 -40 99 -51
34 -7 62 -15 62 -19 0 -3 -14 -68 -32 -143 -36 -153 -29 -147 -118 -123 -49
13 -59 13 -88 -1 -69 -32 -183 -14 -241 39 -77 71 -81 227 -8 305 23 25 65 49
107 63 34 11 116 2 153 -17z m4772 -39 c66 -27 124 -115 125 -187 0 -21 -5
-57 -11 -80 -10 -36 -8 -53 9 -108 l20 -65 -24 -8 c-16 -6 -24 -16 -24 -33 0
-13 4 -24 10 -24 5 0 17 -11 26 -25 14 -21 14 -30 4 -55 -7 -17 -16 -30 -20
-30 -14 0 -21 32 -10 45 8 10 4 18 -14 33 -14 10 -22 22 -19 26 3 3 1 6 -6 6
-8 0 -11 7 -7 15 8 21 -10 19 -101 -10 -43 -14 -83 -25 -90 -25 -7 0 -21 30
-32 68 -16 54 -27 71 -51 85 -47 28 -90 111 -90 173 0 60 39 145 82 177 58 43
150 52 223 22z m-3247 -201 c34 -17 63 -41 82 -69 24 -35 34 -42 54 -38 14 3
76 0 138 -6 212 -21 243 -30 285 -84 17 -23 30 -43 28 -45 -5 -6 -139 25 -176
41 -56 23 -113 30 -199 22 l-79 -7 49 -41 c27 -23 48 -45 47 -49 -3 -11 -181
-218 -188 -218 -4 0 -29 18 -57 40 -38 31 -65 43 -107 50 -77 13 -133 52 -168
120 -22 45 -27 64 -23 102 17 163 172 253 314 182z m1233 -300 c71 -39 101
-91 108 -184 5 -62 12 -85 39 -129 28 -44 31 -56 20 -66 -18 -16 -239 -147
-242 -143 -2 2 -18 29 -37 60 -27 47 -44 63 -85 83 -96 47 -138 136 -115 240
31 140 184 208 312 139z m1061 2 c123 -37 185 -158 147 -286 -11 -36 -6 -64
28 -156 2 -6 -27 -21 -69 -34 -40 -12 -100 -31 -132 -41 -33 -11 -64 -19 -71
-19 -6 0 -21 30 -33 68 -17 53 -29 71 -56 89 -44 29 -86 112 -86 172 1 91 58
173 141 202 65 22 74 23 131 5z m-3356 -125 c38 -17 48 -18 110 -6 38 7 72 11
77 8 4 -2 7 -16 7 -31 0 -15 9 -74 20 -132 11 -58 20 -110 20 -116 0 -7 -30
-17 -67 -24 -54 -10 -75 -19 -102 -46 -73 -72 -190 -84 -273 -29 -24 16 -46
28 -50 27 -5 -1 -7 1 -6 6 1 4 -6 22 -15 39 -45 84 -29 191 38 258 64 64 160
83 241 46z m-1096 -71 c33 -11 70 -19 83 -16 78 13 107 17 107 14 0 -3 11 -67
26 -143 19 -105 22 -140 13 -146 -7 -4 -36 -10 -66 -14 -40 -5 -61 -14 -86
-37 -50 -47 -70 -57 -128 -68 -95 -18 -180 25 -224 113 -33 67 -33 127 1 195
28 55 60 84 121 107 53 19 84 18 153 -5z m5732 -11 c70 -16 130 -74 153 -144
19 -63 15 -106 -17 -169 -17 -34 -19 -51 -14 -112 l7 -71 -133 -14 c-73 -8
-140 -14 -148 -14 -11 0 -17 18 -23 69 -6 55 -13 75 -37 102 -36 42 -62 126
-54 174 10 51 37 101 76 136 55 50 110 62 190 43z m-6208 -354 c36 -69 66
-126 66 -128 0 -1 -28 -17 -63 -36 -50 -27 -69 -44 -88 -80 -63 -119 -223
-148 -325 -58 -50 43 -74 96 -74 162 0 130 106 225 234 212 45 -4 60 -1 111
27 33 18 63 31 67 29 3 -2 36 -59 72 -128z m2407 40 c24 -9 62 -33 84 -54 30
-30 56 -43 104 -55 36 -9 66 -18 67 -19 3 -3 -65 -279 -69 -284 -2 -2 -36 4
-74 13 -65 14 -73 14 -101 0 -39 -20 -122 -21 -170 0 -171 71 -176 312 -7 390
58 28 105 30 166 9z m996 -206 c72 -35 123 -115 123 -195 0 -18 16 -48 45 -85
l45 -57 -48 -40 c-96 -80 -175 -142 -182 -142 -4 0 -26 24 -48 53 -33 42 -50
55 -86 65 -132 35 -194 186 -128 313 23 45 37 59 81 82 68 34 136 36 198 6z
m-2328 -199 l89 -114 -56 -43 c-44 -35 -59 -54 -72 -94 -42 -122 -157 -175
-286 -133 -53 17 -101 69 -123 133 -46 137 61 280 210 281 26 1 46 12 84 45
28 25 53 44 58 42 4 -1 47 -54 96 -117z m3456 53 c107 -54 150 -186 95 -292
-20 -39 -22 -54 -16 -117 l7 -71 -108 -12 c-59 -6 -126 -14 -149 -17 l-41 -6
-7 73 c-5 57 -12 79 -30 99 -89 95 -77 240 26 323 59 48 151 56 223 20z m841
-98 c66 -39 98 -93 102 -174 3 -55 0 -73 -21 -112 -23 -43 -25 -53 -17 -115 5
-38 8 -69 7 -70 -3 -3 -292 -32 -294 -30 -1 1 -5 33 -9 71 -6 60 -12 75 -40
107 -74 83 -68 218 14 296 72 67 171 78 258 27z m-4972 -234 l66 -130 -60 -32
c-44 -23 -67 -43 -80 -68 -40 -79 -133 -137 -206 -128 -65 7 -134 46 -169 96
-27 39 -30 50 -30 121 0 71 3 82 30 122 45 63 104 92 191 94 54 1 83 7 125 27
30 14 57 26 60 27 4 0 36 -58 73 -129z m2378 -5 c25 -7 62 -26 81 -41 37 -27
77 -96 77 -131 0 -11 25 -39 60 -68 l60 -50 -21 -22 c-12 -13 -18 -28 -14 -35
5 -8 4 -10 -3 -5 -7 4 -41 -28 -83 -78 -80 -94 -69 -92 -142 -29 -23 21 -48
33 -65 33 -152 0 -265 170 -203 305 31 68 77 105 156 125 44 11 47 11 97 -4z
m1133 -300 c82 -48 124 -163 92 -251 -13 -37 -13 -46 4 -100 10 -33 19 -65 19
-71 0 -8 -249 -94 -273 -94 -3 0 -16 30 -28 68 -17 54 -29 72 -59 93 -50 36
-80 100 -80 170 1 172 176 272 325 185z m-4077 -216 c61 -47 111 -89 111 -93
1 -5 -19 -33 -44 -64 -26 -31 -44 -62 -41 -70 11 -29 -15 -111 -48 -149 -89
-104 -221 -110 -316 -14 -86 85 -88 208 -6 298 24 28 87 62 113 62 10 0 38 27
63 60 24 33 48 59 51 58 4 -2 56 -41 117 -88z m3611 -160 c77 -39 133 -144
117 -218 -5 -22 1 -42 29 -87 19 -33 34 -63 33 -67 -2 -4 -58 -41 -125 -82
l-122 -74 -38 63 c-27 46 -46 66 -70 74 -137 50 -182 229 -87 340 20 23 45 46
57 53 60 32 141 32 206 -2z m-972 -103 c270 -93 493 -327 699 -732 105 -208
225 -528 270 -722 32 -139 -24 -368 -152 -625 -24 -48 -64 -133 -88 -187 -88
-197 -171 -267 -367 -307 -229 -46 -385 20 -635 270 -217 218 -413 501 -591
853 -143 283 -177 403 -177 623 0 142 10 208 50 324 94 272 311 456 614 521
102 22 287 14 377 -18z m-2117 -89 c49 -62 89 -115 89 -118 0 -3 -27 -25 -59
-49 -40 -30 -60 -52 -60 -66 0 -33 -55 -111 -97 -139 -115 -75 -275 -15 -318
119 -42 136 43 261 192 281 37 4 64 16 99 44 27 21 52 39 56 39 5 1 48 -50 98
-111z"/>
</g>
</svg>
