<svg id="svg" xmlns="http://www.w3.org/2000/svg" xmlns:xlink="http://www.w3.org/1999/xlink" width="400" height="359.4202898550725" viewBox="0, 0, 400,359.4202898550725" version="1.1"><g id="svgg"><path id="path0" d="M259.818 3.322 C 252.324 6.520,245.415 14.971,232.096 37.235 C 229.455 41.650,226.358 46.667,225.215 48.384 C 224.072 50.100,222.565 52.497,221.866 53.710 C 219.101 58.512,209.645 71.426,202.096 80.713 C 195.726 88.550,183.366 100.034,178.818 102.343 C 177.960 102.779,176.455 103.675,175.474 104.335 C 173.256 105.826,169.170 107.441,163.657 109.008 C 158.762 110.398,148.052 115.865,148.050 116.974 C 148.046 118.675,163.012 116.202,169.385 113.449 C 177.064 110.133,180.649 107.758,187.093 101.721 C 188.824 100.100,191.031 98.064,191.998 97.196 C 195.195 94.328,199.865 88.921,202.574 84.950 C 203.243 83.969,204.342 82.542,205.017 81.780 C 205.691 81.018,206.745 79.732,207.358 78.922 C 207.971 78.113,208.675 77.232,208.922 76.964 C 209.326 76.526,213.335 70.743,215.608 67.319 C 216.098 66.581,217.603 64.397,218.952 62.467 C 220.301 60.537,222.508 57.239,223.857 55.138 C 225.965 51.855,227.425 50.414,227.425 51.618 C 227.425 52.371,225.207 60.704,223.954 64.660 C 223.216 66.990,222.459 69.498,222.273 70.234 C 221.761 72.256,221.815 72.085,219.798 78.038 C 216.724 87.111,215.131 90.033,212.713 91.034 C 210.174 92.086,208.796 92.851,204.905 95.368 C 201.655 97.471,201.146 97.839,199.783 99.070 C 198.758 99.996,190.277 106.834,188.178 108.427 C 187.322 109.076,185.819 110.330,184.838 111.214 C 183.857 112.097,182.840 112.820,182.578 112.820 C 182.315 112.820,181.671 113.315,181.145 113.919 C 180.206 115.000,172.872 120.662,170.151 122.408 C 168.394 123.536,164.337 125.985,161.059 127.898 C 150.278 134.189,134.258 138.973,129.864 137.215 L 128.084 136.503 125.231 139.935 C 123.662 141.822,120.755 145.474,118.771 148.050 L 115.163 152.733 116.167 154.962 C 116.719 156.188,117.737 157.592,118.429 158.082 C 119.121 158.573,120.330 159.576,121.115 160.312 C 121.900 161.048,123.178 162.152,123.954 162.765 C 124.731 163.378,125.923 164.381,126.604 164.994 C 127.949 166.207,128.640 166.759,131.336 168.774 C 132.312 169.503,133.537 170.507,134.058 171.003 C 134.579 171.500,135.568 172.308,136.257 172.798 C 138.082 174.098,142.367 177.554,143.144 178.353 C 143.512 178.732,144.816 179.733,146.042 180.577 C 147.269 181.422,148.673 182.465,149.164 182.895 C 149.654 183.325,151.460 184.727,153.177 186.011 C 154.894 187.294,156.399 188.469,156.522 188.621 C 156.644 188.773,157.698 189.574,158.863 190.400 C 160.028 191.226,160.981 192.022,160.981 192.170 C 160.981 192.538,155.671 200.365,155.223 200.657 C 155.025 200.786,154.550 201.494,154.169 202.230 C 153.788 202.965,153.108 203.969,152.658 204.459 C 152.208 204.950,150.639 206.930,149.173 208.861 C 147.706 210.791,146.251 212.468,145.940 212.587 C 145.628 212.707,145.373 213.034,145.373 213.316 C 145.373 213.597,144.370 214.890,143.144 216.189 C 141.918 217.488,140.914 218.658,140.914 218.787 C 140.914 219.390,133.842 227.232,129.486 231.461 C 119.357 241.291,106.852 250.869,97.520 255.946 C 93.452 258.159,93.377 258.693,97.314 257.410 C 98.853 256.909,100.695 256.367,101.409 256.205 C 102.123 256.044,103.728 255.062,104.976 254.023 C 107.693 251.763,110.407 249.666,111.417 249.049 C 113.252 247.926,118.618 243.820,118.618 243.539 C 118.618 243.366,119.169 242.892,119.844 242.487 C 122.721 240.755,137.296 226.249,139.878 222.547 C 140.296 221.948,140.957 221.139,141.349 220.747 C 141.740 220.356,142.656 219.252,143.383 218.294 C 144.110 217.336,145.106 216.123,145.596 215.599 C 150.160 210.721,158.305 200.024,158.305 198.909 C 158.305 198.692,158.471 198.447,158.674 198.365 C 158.876 198.283,160.114 196.611,161.425 194.649 C 162.736 192.687,163.924 190.981,164.067 190.858 C 164.209 190.736,164.567 190.234,164.862 189.744 C 165.158 189.253,166.837 186.444,168.594 183.501 C 170.352 180.557,171.931 178.049,172.104 177.926 C 172.277 177.804,173.567 175.697,174.971 173.244 C 176.375 170.792,177.715 168.484,177.949 168.116 C 178.183 167.748,178.587 166.949,178.847 166.341 C 179.107 165.733,179.477 165.131,179.669 165.004 C 180.016 164.773,180.243 164.375,182.386 160.236 C 182.999 159.051,183.651 158.016,183.835 157.934 C 184.019 157.852,184.169 157.567,184.169 157.300 C 184.169 157.033,184.444 156.498,184.780 156.111 C 185.883 154.840,196.655 133.789,202.026 122.408 C 203.068 120.201,205.178 115.786,206.716 112.598 C 210.136 105.507,213.155 98.589,213.155 97.842 C 213.155 97.537,213.367 97.217,213.625 97.131 C 213.884 97.044,214.149 96.676,214.214 96.313 C 214.279 95.950,214.977 94.254,215.766 92.546 C 216.554 90.838,217.317 88.931,217.461 88.310 C 217.733 87.130,222.103 76.801,224.447 71.795 C 225.194 70.201,225.835 68.796,225.873 68.673 C 225.910 68.551,226.052 68.149,226.188 67.781 C 226.324 67.414,226.771 66.109,227.182 64.883 C 227.593 63.657,228.228 62.101,228.594 61.427 C 228.960 60.753,229.123 60.201,228.956 60.201 C 228.790 60.201,228.895 59.909,229.191 59.553 C 229.486 59.197,229.789 58.444,229.863 57.881 C 230.015 56.727,233.354 48.149,234.385 46.265 C 234.754 45.591,234.971 45.039,234.867 45.039 C 234.763 45.039,235.564 42.480,236.646 39.353 C 237.729 36.226,238.678 33.367,238.755 32.999 C 239.045 31.616,241.642 25.465,242.145 24.972 C 242.607 24.519,244.816 19.812,244.816 19.280 C 244.816 18.977,244.993 18.729,245.210 18.729 C 245.427 18.729,245.699 18.378,245.815 17.949 C 246.096 16.912,251.494 9.810,252.000 9.810 C 252.218 9.810,252.397 9.548,252.397 9.228 C 252.397 8.539,258.525 4.459,259.561 4.459 C 260.918 4.459,260.835 5.036,259.118 7.530 C 258.170 8.907,256.834 10.936,256.150 12.040 C 253.804 15.825,245.079 33.525,244.330 36.021 C 244.276 36.198,243.687 37.547,243.021 39.019 C 242.354 40.491,241.266 42.899,240.603 44.370 C 239.940 45.842,239.011 47.896,238.539 48.936 C 238.067 49.976,237.681 50.923,237.681 51.042 C 237.681 51.161,237.199 52.317,236.609 53.611 C 236.020 54.905,235.016 57.106,234.380 58.501 C 233.743 59.896,233.222 61.232,233.222 61.471 C 233.222 61.710,232.321 63.779,231.221 66.069 C 230.120 68.360,229.217 70.460,229.214 70.737 C 229.211 71.013,228.098 73.550,226.740 76.374 C 225.382 79.197,224.198 81.881,224.110 82.337 C 224.021 82.793,222.674 85.780,221.116 88.974 C 219.558 92.169,217.944 95.580,217.529 96.555 C 214.896 102.740,212.194 108.505,207.607 117.726 C 200.483 132.046,189.456 153.536,188.576 154.816 C 188.179 155.394,187.099 157.368,186.178 159.204 C 185.256 161.040,184.377 162.642,184.224 162.765 C 183.862 163.056,183.014 164.437,182.170 166.109 C 181.799 166.845,181.144 167.981,180.714 168.634 C 180.285 169.287,179.254 170.993,178.424 172.425 C 177.593 173.856,176.787 175.128,176.631 175.251 C 176.475 175.373,176.102 175.975,175.802 176.589 C 175.111 178.002,174.776 178.539,171.244 183.881 C 169.646 186.298,168.106 188.683,167.822 189.181 C 167.537 189.679,167.119 190.210,166.892 190.361 C 166.665 190.512,165.638 192.040,164.611 193.757 C 163.583 195.474,162.059 197.781,161.223 198.885 C 160.387 199.989,159.689 201.110,159.673 201.376 C 159.657 201.642,158.977 202.746,158.162 203.829 C 157.347 204.911,154.993 208.105,152.930 210.925 C 150.867 213.746,149.065 216.154,148.925 216.276 C 148.785 216.399,148.079 217.298,147.357 218.274 C 145.642 220.589,145.001 221.385,143.266 223.346 C 142.474 224.240,141.822 225.107,141.816 225.271 C 141.811 225.436,141.048 226.339,140.122 227.278 C 137.877 229.554,133.854 234.004,132.313 235.916 C 129.621 239.255,127.924 241.094,120.513 248.709 C 116.282 253.055,112.826 256.717,112.833 256.845 C 112.839 256.974,114.408 257.819,116.319 258.723 C 124.820 262.745,139.075 281.966,146.022 298.774 C 149.413 306.979,151.044 309.705,151.691 308.250 C 152.354 306.757,160.562 303.421,169.008 301.212 C 173.537 300.027,183.532 298.679,207.135 296.071 C 219.810 294.671,228.039 292.978,232.776 290.798 C 233.880 290.290,235.134 289.870,235.563 289.865 C 235.992 289.859,236.343 289.679,236.343 289.464 C 236.343 289.249,237.397 288.622,238.685 288.070 C 239.972 287.519,241.126 286.937,241.249 286.778 C 241.371 286.618,242.375 285.790,243.478 284.938 C 246.661 282.481,250.602 278.389,251.305 276.810 C 251.660 276.014,252.451 274.560,253.062 273.579 C 253.674 272.598,254.302 271.494,254.457 271.126 C 254.613 270.758,255.316 269.202,256.021 267.669 C 256.726 266.135,257.302 264.805,257.302 264.713 C 257.302 264.621,257.644 263.769,258.062 262.819 C 258.481 261.870,258.878 260.792,258.946 260.424 C 259.013 260.056,259.470 257.848,259.962 255.518 C 260.453 253.188,260.957 250.780,261.081 250.167 C 261.205 249.554,261.416 248.551,261.551 247.938 C 261.686 247.324,261.891 246.020,262.007 245.039 C 262.123 244.058,262.307 242.854,262.415 242.363 C 262.523 241.873,262.733 239.866,262.882 237.904 C 263.032 235.942,263.240 233.634,263.346 232.776 C 264.201 225.830,264.444 202.249,263.818 186.845 C 263.614 181.817,263.388 175.897,263.316 173.690 C 263.069 166.152,262.592 157.230,262.422 156.955 C 262.329 156.803,262.121 153.484,261.960 149.577 C 261.799 145.671,261.592 142.349,261.499 142.195 C 261.191 141.685,260.487 113.727,260.404 98.774 C 260.354 89.559,260.589 81.655,261.281 69.342 C 261.502 65.418,261.673 61.906,261.662 61.538 C 261.651 61.171,261.971 57.659,262.374 53.735 C 264.295 35.026,265.255 30.344,268.455 24.071 C 269.746 21.541,271.919 21.343,273.688 23.596 C 277.016 27.831,281.373 38.141,281.998 43.255 C 282.103 44.114,282.634 46.522,283.178 48.606 C 283.723 50.691,284.230 52.999,284.306 53.735 C 284.382 54.470,284.750 56.060,285.122 57.267 C 285.495 58.474,285.713 59.603,285.606 59.776 C 285.499 59.949,285.699 61.069,286.052 62.264 C 286.404 63.459,286.806 65.440,286.945 66.667 C 287.084 67.893,287.473 69.938,287.810 71.211 C 288.147 72.483,288.330 73.617,288.218 73.730 C 288.105 73.842,288.219 74.707,288.472 75.652 C 288.724 76.596,289.038 78.272,289.170 79.376 C 289.301 80.479,289.512 81.884,289.639 82.497 C 289.855 83.538,289.970 84.559,290.520 90.301 C 290.637 91.527,290.928 93.534,291.167 94.760 C 291.931 98.682,292.727 104.111,292.601 104.537 C 292.534 104.764,292.690 105.867,292.949 106.990 C 293.208 108.112,293.507 110.033,293.614 111.260 C 293.722 112.486,294.341 118.305,294.990 124.192 C 295.640 130.078,296.241 135.697,296.327 136.678 C 296.413 137.659,296.684 140.167,296.931 142.252 C 298.812 158.186,299.342 162.475,300.183 168.562 C 300.708 172.363,301.123 175.775,301.105 176.143 C 301.087 176.511,301.458 179.549,301.930 182.894 C 302.402 186.240,302.881 189.953,302.995 191.147 C 303.237 193.690,305.334 205.983,305.913 208.250 C 306.132 209.108,306.420 210.747,306.553 211.892 C 306.686 213.036,306.985 214.475,307.219 215.089 C 307.745 216.472,312.598 244.240,312.598 245.865 C 312.598 247.172,312.834 247.226,315.668 246.573 C 327.762 243.785,345.200 253.291,367.233 274.683 C 379.910 286.991,393.249 298.465,398.528 301.602 C 399.127 301.958,396.654 295.990,392.181 286.288 C 390.541 282.731,388.337 277.514,387.282 274.693 C 386.226 271.873,383.921 266.154,382.158 261.984 C 380.395 257.815,378.088 251.996,377.030 249.052 C 375.973 246.109,373.668 240.290,371.910 236.120 C 370.151 231.951,367.643 225.730,366.336 222.297 C 365.030 218.863,362.563 212.441,360.854 208.027 C 357.282 198.802,349.247 175.767,336.898 139.353 C 326.110 107.545,323.173 99.132,317.588 84.058 C 309.001 60.876,305.430 52.457,297.605 36.943 C 283.499 8.976,271.529 -1.674,259.818 3.322 " stroke="none" fill="#000000" fill-rule="evenodd"></path></g></svg>