<?xml version="1.0" standalone="no"?>
<!DOCTYPE svg PUBLIC "-//W3C//DTD SVG 20010904//EN"
 "http://www.w3.org/TR/2001/REC-SVG-20010904/DTD/svg10.dtd">
<svg version="1.0" xmlns="http://www.w3.org/2000/svg"
 width="256.000000pt" height="256.000000pt" viewBox="0 0 256.000000 256.000000"
 preserveAspectRatio="xMidYMid meet">
<metadata>
Created by potrace 1.16, written by Peter Selinger 2001-2019
</metadata>
<g transform="translate(0.000000,256.000000) scale(0.100000,-0.100000)"
fill="#000000" stroke="none">
<path d="M1015 2510 c-427 -90 -772 -390 -919 -798 -90 -252 -90 -591 0 -844
124 -347 404 -627 752 -752 252 -90 592 -90 844 0 410 148 711 495 798 923 28
138 28 364 0 502 -101 492 -477 868 -969 969 -134 27 -376 27 -506 0z m558
-33 c441 -117 765 -442 885 -886 23 -87 26 -114 26 -291 1 -222 -10 -287 -75
-455 -142 -367 -447 -637 -837 -743 -90 -24 -112 -26 -302 -26 -190 0 -212 2
-303 27 -443 119 -768 444 -884 886 -21 78 -27 127 -30 261 -6 186 7 281 57
432 117 352 399 638 750 762 151 54 238 66 435 62 155 -3 194 -7 278 -29z"/>
<path d="M1456 2372 c19 -7 13 -20 -94 -207 -63 -110 -164 -279 -225 -375 -60
-96 -117 -187 -126 -202 -9 -15 -32 -34 -51 -43 -31 -14 -65 -66 -295 -451
-142 -240 -263 -438 -268 -441 -4 -2 -18 8 -30 23 -42 52 -49 61 -41 44 45
-90 167 -228 272 -307 449 -338 1056 -300 1448 92 188 188 294 411 324 685 13
116 1 253 -31 377 -23 88 -41 128 -33 73 5 -29 -2 -48 -44 -115 -28 -44 -90
-145 -138 -225 -137 -227 -362 -579 -489 -765 -65 -93 -138 -202 -164 -242
-25 -39 -56 -76 -68 -82 -23 -10 -149 -18 -158 -9 -2 2 6 20 18 39 13 19 52
97 87 174 155 341 353 728 522 1024 33 57 61 114 63 127 1 12 30 71 65 131 34
59 80 139 102 176 l40 69 26 -24 c26 -22 26 -22 -3 17 -51 70 -109 134 -164
182 -42 36 -52 41 -46 24 7 -24 0 -37 -193 -368 -60 -104 -100 -163 -111 -163
-10 -1 -41 -43 -81 -113 -74 -128 -215 -357 -349 -567 -51 -80 -137 -215 -192
-300 -54 -85 -120 -193 -146 -238 -25 -46 -52 -86 -59 -89 -23 -9 -174 80
-174 103 0 7 20 45 43 86 24 40 119 215 212 388 179 335 358 661 381 694 19
27 18 34 -6 38 -17 3 -7 26 83 188 57 102 129 230 162 285 32 55 74 128 94
162 20 34 43 64 51 66 20 5 -139 56 -193 62 -24 3 -33 2 -21 -3z m864 -1388
c-42 -154 -136 -318 -241 -419 l-52 -50 30 55 c17 30 56 105 88 165 122 231
189 349 193 337 2 -6 -6 -46 -18 -88z"/>
<path d="M865 2292 c-55 -34 -230 -273 -522 -712 l-163 -244 -1 54 -2 55 -9
-70 c-13 -93 5 -268 38 -382 24 -83 97 -253 108 -253 3 0 -8 28 -24 63 -49
102 -48 112 7 208 85 145 113 199 105 199 -4 0 -14 -6 -21 -12 -7 -7 57 127
142 297 85 171 166 335 180 365 78 170 97 212 97 215 0 1 20 45 44 96 42 90
61 139 54 139 -2 0 -16 -8 -33 -18z"/>
</g>
</svg>
