<?xml version="1.0" standalone="no"?>
<!DOCTYPE svg PUBLIC "-//W3C//DTD SVG 20010904//EN"
 "http://www.w3.org/TR/2001/REC-SVG-20010904/DTD/svg10.dtd">
<svg version="1.0" xmlns="http://www.w3.org/2000/svg"
 width="788.000000pt" height="762.000000pt" viewBox="0 0 788.000000 762.000000"
 preserveAspectRatio="xMidYMid meet">

<g transform="translate(0.000000,762.000000) scale(0.100000,-0.100000)"
fill="#000000" stroke="none">
<path d="M4665 7599 c-986 -101 -1785 -632 -2170 -1442 -219 -462 -294 -1037
-204 -1567 52 -304 170 -666 309 -941 34 -66 36 -79 15 -79 -8 0 -39 -9 -70
-21 -95 -35 -187 -137 -228 -252 -8 -23 -13 -307 -17 -983 l-5 -951 -28 -36
c-53 -69 -65 -72 -317 -72 -124 0 -237 3 -252 7 -35 10 -85 53 -106 92 -16 28
-17 106 -22 936 l-5 905 -31 60 c-39 74 -116 148 -192 183 -57 27 -58 27 -325
30 -304 4 -335 -1 -427 -65 -70 -49 -123 -120 -149 -200 -21 -62 -21 -79 -21
-803 l0 -740 -50 0 c-41 0 -56 -5 -82 -29 -28 -25 -33 -36 -33 -76 0 -40 5
-51 33 -76 l32 -29 -58 0 c-81 0 -140 -31 -169 -90 -21 -40 -23 -59 -23 -192
0 -141 -1 -148 -20 -148 -18 0 -20 -7 -20 -80 l0 -80 90 0 90 0 0 -330 c0
-317 1 -331 20 -350 27 -27 71 -26 98 3 22 23 22 28 22 350 l0 327 180 0 180
0 0 -330 c0 -317 1 -331 20 -350 26 -26 74 -26 100 0 19 19 20 33 20 350 l0
329 88 3 87 3 3 78 c3 77 3 77 -23 77 l-25 0 0 150 c0 172 -8 202 -65 246 -31
23 -50 29 -104 32 l-67 4 33 33 c44 44 45 91 4 137 -25 28 -37 33 -88 38 l-58
5 0 730 c0 698 1 732 19 768 11 22 37 51 59 65 40 27 41 27 269 30 260 3 290
-3 344 -74 l29 -37 5 -901 5 -901 24 -60 c33 -83 133 -183 216 -216 57 -22 74
-24 313 -27 213 -3 262 -1 310 13 148 44 253 159 281 310 7 39 11 353 11 962
0 741 2 910 14 936 26 63 102 107 184 107 17 0 32 2 32 4 0 1 -25 46 -55 99
-30 52 -55 98 -55 101 0 3 109 6 243 6 275 0 309 -6 401 -68 72 -48 130 -127
156 -209 19 -63 20 -91 20 -934 0 -834 1 -871 19 -907 47 -92 81 -102 341
-102 225 0 258 6 308 53 54 50 52 6 52 976 0 635 -3 923 -12 978 -6 43 -12
157 -12 253 l0 175 -46 -22 c-83 -39 -203 -74 -315 -90 -206 -30 -409 14 -577
124 -50 34 -81 100 -81 172 0 31 3 65 6 76 6 18 -2 25 -54 49 -79 36 -136 93
-144 143 -4 21 -14 57 -22 81 -15 41 -20 95 -15 172 3 38 -10 144 -27 228 -6
31 -7 61 -2 75 6 14 3 45 -7 85 -12 51 -20 66 -42 77 -51 26 -55 95 -11 178
l29 55 -25 49 c-21 41 -24 58 -20 113 2 36 13 86 24 110 13 29 17 53 12 65 -4
11 -8 47 -8 79 -1 68 25 134 66 166 23 18 24 23 14 51 -27 77 3 173 64 213 18
12 25 23 20 34 -4 9 -11 41 -16 69 -19 102 23 173 102 173 34 0 39 3 45 28 32
131 113 222 198 222 31 0 36 4 41 28 15 71 27 100 49 122 21 19 32 22 69 17
42 -6 44 -5 56 28 47 132 209 221 387 213 54 -2 65 1 94 25 43 37 112 71 185
93 72 21 218 23 292 5 l53 -13 42 44 c24 24 61 49 83 56 94 30 283 24 424 -13
47 -12 51 -12 86 14 53 37 157 37 230 -1 35 -17 56 -23 70 -17 11 4 59 8 106
8 131 1 251 -40 383 -133 46 -32 75 -44 128 -53 38 -6 94 -24 125 -39 77 -40
181 -139 249 -239 44 -64 63 -85 80 -85 79 0 172 -95 197 -201 5 -19 15 -28
36 -32 35 -7 96 -59 116 -97 8 -16 17 -47 21 -71 3 -24 17 -66 30 -94 38 -80
50 -157 35 -228 -7 -34 -21 -77 -30 -96 -16 -31 -16 -40 -5 -66 17 -39 17
-117 0 -158 -7 -18 -28 -45 -46 -61 -32 -26 -33 -30 -31 -95 4 -131 -59 -211
-200 -254 -9 -3 -26 -26 -39 -51 -28 -59 -97 -120 -169 -148 -47 -18 -76 -22
-183 -22 l-128 -1 0 -36 c0 -55 -35 -159 -70 -206 -38 -52 -108 -99 -177 -119
-42 -12 -53 -20 -53 -36 0 -33 -79 -102 -136 -119 -63 -18 -226 -18 -327 0
-68 12 -79 12 -95 -1 -25 -22 -111 -64 -149 -72 -27 -6 -33 -14 -48 -58 -26
-80 -68 -133 -125 -160 -30 -14 -49 -30 -50 -40 0 -10 -13 -32 -29 -50 -25
-28 -38 -33 -87 -38 l-58 -5 -13 -59 c-20 -88 -72 -188 -158 -306 -83 -113
-132 -202 -164 -298 -21 -60 -21 -79 -21 -966 0 -851 -1 -908 -18 -964 -34
-107 -113 -196 -218 -244 -47 -22 -58 -23 -344 -23 l-295 0 -56 27 c-110 55
-196 168 -219 287 -6 34 -10 373 -10 910 0 964 5 896 -77 954 l-39 28 -175 1
c-95 0 -178 0 -182 -1 -4 -1 27 -52 69 -113 140 -205 151 -222 194 -308 177
-352 226 -717 154 -1140 -31 -184 -125 -466 -208 -625 -17 -33 -32 -62 -33
-65 -2 -3 70 -5 159 -5 152 0 169 -2 251 -29 106 -35 220 -101 397 -231 74
-54 210 -154 302 -221 207 -151 316 -219 482 -300 147 -72 310 -127 440 -149
103 -17 259 -18 331 -1 l50 11 7 60 c15 131 46 247 118 440 100 268 111 336
119 735 6 301 7 317 29 357 37 70 57 76 235 62 277 -21 702 7 1197 77 231 33
240 36 288 88 75 82 98 234 66 436 -27 169 -25 195 16 264 19 32 59 87 88 122
28 35 52 71 52 81 0 24 -53 134 -90 190 -35 51 -37 63 -12 63 27 0 102 51 145
98 34 38 37 47 37 100 0 31 -9 113 -20 181 -11 68 -19 125 -18 126 2 1 35 7
74 13 129 18 183 61 192 152 4 45 -3 64 -125 312 -72 144 -162 317 -202 383
-97 163 -106 195 -105 380 1 128 4 162 25 230 41 136 29 337 -37 635 -95 425
-306 833 -578 1118 -370 388 -842 611 -1476 698 -137 18 -583 27 -715 13z"/>
<path d="M4584 6811 c-411 -111 -635 -552 -484 -953 12 -32 48 -99 81 -148
145 -222 209 -403 209 -596 0 -86 14 -140 47 -176 15 -17 41 -18 334 -18 l319
0 27 41 c24 37 27 51 34 182 6 120 11 156 38 234 37 111 84 206 145 296 106
154 148 280 148 441 0 172 -45 309 -147 442 -85 110 -198 192 -336 240 -102
37 -307 44 -415 15z m331 -86 c183 -47 333 -169 415 -340 49 -102 64 -178 58
-302 -6 -130 -34 -208 -120 -342 -143 -219 -196 -368 -207 -571 -4 -74 -10
-141 -14 -147 -6 -10 -74 -13 -282 -13 l-275 0 -4 23 c-3 12 -7 74 -10 137 -7
185 -67 355 -194 552 -82 125 -111 193 -129 296 -25 142 4 293 79 420 78 131
240 251 385 286 78 19 225 20 298 1z"/>
<path d="M4546 5758 c-20 -28 -21 -107 -1 -134 8 -12 28 -27 45 -34 l30 -12 0
-280 c0 -219 3 -279 13 -276 9 4 13 71 15 281 l2 277 115 0 115 0 2 -277 c2
-218 6 -278 16 -278 10 0 13 58 13 276 l0 277 30 12 c42 18 59 47 59 100 0 54
-22 90 -55 90 -34 0 -56 -38 -62 -110 l-6 -60 -112 0 -112 0 -6 65 c-5 73 -25
105 -63 105 -13 0 -30 -10 -38 -22z m65 -38 c12 -42 10 -100 -3 -100 -37 0
-61 66 -42 115 9 23 37 14 45 -15z m353 14 c13 -33 6 -81 -15 -100 -17 -15
-22 -16 -29 -4 -9 15 -6 64 5 101 8 23 31 25 39 3z"/>
<path d="M4450 4852 c0 -91 -15 -88 318 -59 160 14 296 28 302 32 5 3 10 22
10 41 l0 34 -315 0 -315 0 0 -48z"/>
<path d="M4755 4761 c-255 -23 -290 -28 -293 -44 -3 -13 4 -17 30 -17 54 0
580 49 586 54 8 9 -7 36 -20 35 -7 -1 -143 -14 -303 -28z"/>
<path d="M4735 4694 c-137 -12 -256 -23 -262 -23 -14 -1 -18 -27 -5 -34 4 -3
142 7 307 22 265 23 300 28 303 44 4 22 -18 22 -343 -9z"/>
<path d="M4765 4639 c-165 -15 -302 -27 -304 -28 -2 -1 -1 -10 2 -21 3 -10 0
-21 -7 -23 -8 -3 -8 -8 0 -16 16 -17 616 -11 622 7 3 9 -61 12 -295 13 -164 0
-293 2 -288 4 6 2 120 13 255 24 315 27 330 29 330 46 0 8 -3 16 -7 18 -5 2
-143 -9 -308 -24z"/>
<path d="M4490 4524 c0 -15 63 -94 109 -137 51 -48 139 -97 175 -97 29 0 133
60 176 101 42 41 100 116 100 131 0 4 -126 8 -280 8 -154 0 -280 -3 -280 -6z"/>
</g>
</svg>
